<svg xmlns="http://www.w3.org/2000/svg" width="30" height="30">
	<path d="M9.8 5 .1 10v4l.1 4 1 .6c.4.3.8 1.4.8 2.4v2l6 3 6 3 9-6 9-6v-1.1c0-.6-.7-1.7-1.5-2.6L29 11.8l.6-1 .7-1.1-1.4.8-8.1 5.2-6.7 4.4L9 17.5l-5-2.6-1.2.7-1.1.7L9 20.1l7.4 3.8h-1.3c-1 0-12.9-5.4-14-6.5-.3-.2 0-1 .8-1.9L3.2 14H1v-2l6.3 3.1 6.3 3.1 7.7-4.7L29 9l1 .6 1 .6-.5.9-.5.9 1 .6 1 .6V9h-1.8l.2-1.7.1-1.7-5-2.8A40.5 40.5 0 0 0 20 .1c-.3 0-4.9 2.2-10.2 5m0 .7L.1 10.5v2l.1 2 .5-1.7L1 11l6.2 3 6.2 3 8.2-4.8C26.3 9.7 30 7.2 30 6.8 30 6 20.6.8 19.8 1l-10 4.7m10.8 11-6.9 4.5 1.7.9 1.6.9 2-1.1c1.2-.7 2-1.4 1.7-1.7-.3-.2-1.5 0-2.6.7-4.3 2.3-1.9.1 3.9-3.4 3.2-2 6.2-4.1 6.5-4.6l.6-1h-.8c-.4.1-3.9 2.2-7.7 4.7m4.1 0c-2 1.5-3.5 2.8-3.2 3 .2.4 2.2-.6 4.4-2l3.8-2.6 1.2 1.2 1.1 1.1v-3h-1.8l-1.7-.2-3.8 2.6M4 16.5c0 .3.2.5.5.5s.5-.2.5-.5-.2-.5-.5-.5-.5.2-.5.5m18.2 4.4-7.3 4.5-5.5-2.7C4 20 1.1 19 4 21l1.5 1H4l-1.5.1 5.8 3 5.7 3 7.8-5.2c9-6 8.7-5.8 8.1-6.2-.2-.2-3.7 1.7-7.7 4.2M6 17.5c0 .3.2.5.5.5s.5-.2.5-.5-.2-.5-.5-.5-.5.2-.5.5m2 1c0 .3.2.5.5.5s.5-.2.5-.5-.2-.5-.5-.5-.5.2-.5.5m2 1c0 .3.2.5.5.5s.5-.2.5-.5-.2-.5-.5-.5-.5.2-.5.5m2 1c0 .3.2.5.5.5s.5-.2.5-.5-.2-.5-.5-.5-.5.2-.5.5m-3 4c2.5 1.3 5 2.4 5.5 2.4.6 0-1-1-3.5-2.4-2.5-1.3-5-2.4-5.5-2.4s1 1 3.5 2.4" fill="#040404" fill-rule="evenodd"/>
	<path d="M10 6 .5 10.7 7 14l6.5 3.2 8.2-4.9C26.3 9.7 30 7.2 30 6.8 30 6.2 20.6.9 19.8 1L10 5.9m11 7.7-7.4 4.6-6.3-3L1 12v2h2.2L2 15.5c-.7.9-1.1 1.7-.9 2 1.2 1 13 6.5 14.1 6.5l1.3-.1-6.3-3.2-6.3-3.3.7-.7c.4-.4 1.1-.7 1.6-.7h1l-.7 1-.6 1 1.7-.7 1.7-.6-.7 1.1L8 19l1.7-.7 1.7-.6-.6 1-.6.9h4.4l6.8-4.3a53 53 0 0 1 7.5-4.3c.4 0-2.8 2.3-7.1 5.1l-7.8 5 .5.6.5.5 7.2-4.8 7.3-4.9.2-1.8.2-1.7h-.6c-.4 0-4 2.1-8.2 4.6m1.3 4.7c-3.5 2.2-6 4.3-5.8 4.5.2.3 1.5-.2 2.7-1 6.3-4 9.8-6 9.8-5.4 0 .3-3.2 2.4-7 4.7l-7.2 4.2-5.4-2.6C4 20 1 19 4 21l1.5 1H4l-1.5.1 5.7 3 5.8 3 8-5.3 7.8-5.3-.1-1.8c-.2-2.2-.1-2.2-7.4 2.6M2.5 16l-.6 1h1c.5 0 1.3-.4 1.6-1l.6-1h-1c-.5 0-1.3.4-1.6 1m9.5 4.5c0 .3.2.5.5.5s.5-.2.5-.5-.2-.5-.5-.5-.5.2-.5.5m-3 4c2.5 1.3 5 2.4 5.5 2.4.6 0-1-1-3.5-2.4-2.5-1.3-5-2.4-5.5-2.4s1 1 3.5 2.4" fill="#fcfcfc" fill-rule="evenodd"/>
</svg>
